<svg xmlns="http://www.w3.org/2000/svg" width="45" height="45" viewBox="0 0 45 45" fill="none">
    <rect width="45" height="45" rx="11.9048" fill="#F8D57E"/>
    <path d="M21.5 21.5V22.5H22.5V21.5H21.5ZM21.5 23.5H22.5V22.5H21.5V23.5ZM23.5 23.5V22.5H22.5V23.5H23.5ZM23.5 21.5H22.5V22.5H23.5V21.5ZM22.5 17H24.5C24.5 15.8954 23.6046 15 22.5 15V17ZM22.5 17V15C21.3954 15 20.5 15.8954 20.5 17H22.5ZM22.5 21.5V17H20.5V21.5H22.5ZM17 22.5H21.5V20.5H17V22.5ZM17 22.5V20.5C15.8954 20.5 15 21.3954 15 22.5H17ZM17 22.5H15C15 23.6046 15.8954 24.5 17 24.5V22.5ZM21.5 22.5H17V24.5H21.5V22.5ZM22.5 28V23.5H20.5V28H22.5ZM22.5 28H20.5C20.5 29.1046 21.3954 30 22.5 30V28ZM22.5 28V30C23.6046 30 24.5 29.1046 24.5 28H22.5ZM22.5 23.5V28H24.5V23.5H22.5ZM28 22.5H23.5V24.5H28V22.5ZM28 22.5V24.5C29.1046 24.5 30 23.6046 30 22.5H28ZM28 22.5H30C30 21.3954 29.1046 20.5 28 20.5V22.5ZM23.5 22.5H28V20.5H23.5V22.5ZM22.5 17V21.5H24.5V17H22.5Z" fill="white"/>
</svg>